<?xml version="1.0" standalone="no"?>
<!DOCTYPE svg PUBLIC "-//W3C//DTD SVG 20010904//EN"
 "http://www.w3.org/TR/2001/REC-SVG-20010904/DTD/svg10.dtd">
<svg version="1.0" xmlns="http://www.w3.org/2000/svg"
 width="200.000000pt" height="200.000000pt" viewBox="0 0 200.000000 200.000000"
 preserveAspectRatio="xMidYMid meet">

<g transform="translate(0.000000,200.000000) scale(0.100000,-0.100000)"
fill="#000000" stroke="none">
<path d="M0 1000 l0 -1000 1000 0 1000 0 0 1000 0 1000 -1000 0 -1000 0 0
-1000z m960 326 c0 -20 -25 -37 -44 -30 -19 7 -22 50 -3 57 17 6 47 -11 47
-27z m74 28 c12 -5 16 -20 16 -61 0 -54 0 -54 22 -39 28 20 71 20 108 1 62
-32 80 -129 35 -184 -36 -42 -84 -56 -127 -38 -23 10 -38 11 -49 4 -9 -6 -24
-7 -33 -4 -14 6 -16 27 -16 160 0 171 2 177 44 161z m-476 -222 l3 -133 -35
-35 c-55 -55 -104 -47 -184 29 l-42 41 -53 -52 c-53 -53 -70 -61 -83 -41 -6
11 122 149 138 149 5 0 38 -27 73 -60 35 -33 72 -60 80 -60 9 0 27 11 40 25
22 22 25 32 25 105 0 44 -4 80 -8 80 -4 0 -28 -20 -52 -45 -24 -25 -50 -45
-58 -45 -7 0 -35 21 -63 47 l-50 46 -47 -46 c-49 -48 -65 -56 -78 -36 -6 11
112 139 129 139 4 0 32 -22 61 -50 l52 -50 39 40 39 40 -41 0 c-44 0 -59 11
-49 36 5 12 22 14 83 12 l78 -3 3 -133z m151 96 c10 -24 26 -65 36 -92 l18
-50 31 89 c22 65 36 91 50 93 10 2 22 0 26 -5 4 -4 -11 -57 -35 -118 -42 -108
-43 -110 -75 -110 -31 0 -33 2 -71 100 -44 117 -47 135 -18 135 14 0 25 -12
38 -42z m246 -78 l0 -115 -27 -3 -28 -3 0 114 c0 62 3 117 7 121 4 4 16 6 28
4 19 -3 20 -10 20 -118z m485 105 c34 -18 63 -66 58 -98 -3 -20 -10 -22 -98
-27 l-95 -5 27 -27 c32 -33 66 -36 102 -7 26 21 56 20 56 -1 0 -6 -12 -22 -26
-35 -73 -68 -190 -23 -201 79 -12 101 86 168 177 121z m-730 -320 c0 -55 6
-65 27 -44 17 17 89 14 119 -5 53 -36 68 -133 27 -178 -42 -47 -94 -58 -143
-33 -17 9 -30 11 -30 5 0 -5 -11 -10 -25 -10 l-25 0 0 160 0 160 25 0 c24 0
25 -3 25 -55z m560 1 c0 -30 3 -35 27 -38 39 -4 43 -36 6 -40 -28 -3 -28 -4
-28 -73 0 -62 2 -70 20 -74 22 -4 36 -21 29 -33 -3 -4 -20 -8 -39 -8 -50 0
-65 28 -65 117 0 66 -2 73 -20 73 -13 0 -20 7 -20 20 0 13 7 20 20 20 16 0 20
7 20 35 0 31 3 35 25 35 22 0 25 -4 25 -34z m170 -1 c0 -31 3 -35 25 -35 18 0
25 -5 25 -20 0 -15 -7 -20 -25 -20 -26 0 -26 -1 -23 -72 3 -64 6 -73 23 -77
22 -4 36 -21 29 -33 -9 -14 -67 -8 -86 9 -14 13 -18 31 -18 94 0 73 -1 78 -22
81 -13 2 -23 10 -23 18 0 8 10 16 23 18 18 3 22 10 22 38 0 30 3 34 25 34 22
0 25 -4 25 -35z m-297 -75 c17 -19 27 -42 27 -60 l0 -30 -95 0 c-52 0 -95 -3
-95 -8 0 -4 7 -18 16 -30 18 -26 79 -30 110 -7 26 20 56 19 52 -1 -4 -24 -48
-54 -89 -60 -80 -13 -147 55 -136 138 14 101 140 136 210 58z m555 23 c28 -17
57 -75 49 -97 -5 -13 -23 -16 -97 -16 -95 0 -106 -6 -73 -42 20 -22 85 -24
103 -3 14 17 60 20 60 5 0 -21 -48 -59 -83 -65 -125 -24 -192 106 -111 213 1
2 20 10 41 17 41 15 74 11 111 -12z m132 7 c0 -7 6 -7 19 0 11 5 29 10 40 10
31 0 28 -36 -3 -44 -46 -11 -56 -32 -56 -112 0 -72 -1 -74 -25 -74 l-25 0 0
115 0 115 25 0 c14 0 25 -5 25 -10z"/>
<path d="M1066 1198 c-35 -50 -3 -128 53 -128 32 0 71 43 71 80 0 63 -89 98
-124 48z"/>
<path d="M1332 1208 c-28 -28 -13 -38 53 -38 36 0 65 4 65 8 0 34 -91 57 -118
30z"/>
<path d="M743 845 c-69 -48 -10 -160 70 -133 50 18 62 76 26 122 -23 30 -63
34 -96 11z"/>
<path d="M998 838 l-23 -23 69 -3 c37 -2 71 0 75 3 11 12 -41 45 -70 45 -17 0
-39 -10 -51 -22z"/>
<path d="M1579 841 c-13 -11 -21 -22 -18 -26 4 -3 38 -5 75 -3 l69 3 -22 23
c-28 27 -73 29 -104 3z"/>
</g>
</svg>
